<?xml version="1.0" encoding="utf-8"?>
<!-- Generator: Adobe Illustrator 23.0.0, SVG Export Plug-In . SVG Version: 6.00 Build 0)  -->
<svg version="1.1" id="Layer_1" xmlns="http://www.w3.org/2000/svg" xmlns:xlink="http://www.w3.org/1999/xlink" x="0px" y="0px"
	 viewBox="0 0 841.89 262.49" style="enable-background:new 0 0 841.89 262.49;" xml:space="preserve">
<style type="text/css">
	.st0{fill:#fff;}
	.st1{fill:#fff;}
	.st2{fill:#00AEEF;}
</style>
<g>
	<g>
		<path class="st0" d="M327.46,160.61h-10.68v-2.1h23.65v2.1h-10.68v28.55h-2.28V160.61z"/>
		<path class="st0" d="M345.98,166.83h2.14v6.35c0.44-0.99,0.99-1.91,1.66-2.76c0.67-0.85,1.43-1.57,2.28-2.17
			c0.85-0.6,1.77-1.05,2.78-1.36c1.01-0.31,2.07-0.45,3.18-0.42v2.36h-0.22c-1.29,0-2.51,0.24-3.68,0.72
			c-1.17,0.48-2.2,1.2-3.09,2.15c-0.89,0.95-1.6,2.12-2.12,3.5c-0.53,1.39-0.79,2.99-0.79,4.8v9.15h-2.14V166.83z"/>
		<path class="st0" d="M375.49,189.69c-1.4,0-2.66-0.23-3.76-0.68c-1.11-0.45-2.05-1.09-2.82-1.9c-0.77-0.82-1.36-1.79-1.75-2.91
			c-0.39-1.12-0.59-2.36-0.59-3.7v-13.66h2.15v13.27c0,2.31,0.61,4.15,1.84,5.54c1.23,1.39,2.98,2.08,5.25,2.08
			c1.08,0,2.1-0.2,3.04-0.59c0.95-0.39,1.77-0.94,2.47-1.64c0.7-0.7,1.25-1.54,1.64-2.52c0.39-0.98,0.59-2.05,0.59-3.22v-12.92h2.15
			v22.33h-2.15V185c-0.76,1.31-1.78,2.42-3.07,3.33S377.54,189.69,375.49,189.69z"/>
		<path class="st0" d="M404.57,189.6c-1.64,0-3.27-0.3-4.9-0.9c-1.64-0.6-3.05-1.38-4.25-2.34l1.27-1.71
			c1.23,0.94,2.51,1.66,3.85,2.17c1.34,0.51,2.73,0.77,4.16,0.77c1.52,0,2.79-0.38,3.83-1.14c1.03-0.76,1.55-1.8,1.55-3.11v-0.09
			c0-0.64-0.16-1.2-0.48-1.66c-0.32-0.47-0.76-0.88-1.31-1.23c-0.55-0.35-1.18-0.64-1.88-0.87c-0.7-0.23-1.44-0.47-2.23-0.7
			c-0.91-0.26-1.82-0.54-2.74-0.83c-0.92-0.29-1.75-0.66-2.48-1.12c-0.73-0.45-1.32-1.01-1.77-1.69c-0.45-0.67-0.68-1.5-0.68-2.5
			v-0.09c0-0.9,0.18-1.73,0.55-2.47c0.37-0.74,0.87-1.39,1.51-1.95c0.64-0.55,1.41-0.99,2.32-1.29c0.9-0.31,1.9-0.46,2.98-0.46
			c1.34,0,2.72,0.22,4.14,0.66c1.41,0.44,2.68,1.04,3.79,1.8l-1.14,1.8c-1.02-0.67-2.12-1.21-3.31-1.62
			c-1.18-0.41-2.37-0.61-3.57-0.61c-1.55,0-2.78,0.37-3.7,1.12c-0.92,0.74-1.38,1.67-1.38,2.78v0.09c0,0.61,0.18,1.15,0.53,1.6
			c0.35,0.45,0.81,0.84,1.38,1.16c0.57,0.32,1.23,0.61,1.99,0.85c0.76,0.25,1.53,0.49,2.32,0.72c0.9,0.26,1.8,0.55,2.67,0.85
			c0.87,0.31,1.66,0.7,2.36,1.18c0.7,0.48,1.26,1.06,1.69,1.73c0.42,0.67,0.63,1.5,0.63,2.5v0.09c0,0.99-0.2,1.89-0.59,2.69
			c-0.39,0.8-0.94,1.49-1.64,2.06c-0.7,0.57-1.52,1.01-2.45,1.31C406.66,189.45,405.65,189.6,404.57,189.6z"/>
		<path class="st0" d="M429.62,189.56c-0.87,0-1.69-0.12-2.45-0.35c-0.76-0.23-1.42-0.61-1.99-1.12s-1.02-1.15-1.34-1.93
			c-0.32-0.77-0.48-1.69-0.48-2.74V168.8h-3.24v-1.97h3.24v-7.14h2.15v7.14h7.84v1.97h-7.84v14.41c0,1.61,0.42,2.73,1.25,3.37
			c0.83,0.64,1.9,0.96,3.22,0.96c0.55,0,1.08-0.06,1.58-0.17c0.5-0.12,1.07-0.32,1.71-0.61v2.01c-0.59,0.26-1.16,0.46-1.73,0.59
			C430.96,189.49,430.32,189.56,429.62,189.56z"/>
		<path class="st0" d="M451.95,189.69c-1.46,0-2.85-0.28-4.18-0.83c-1.33-0.55-2.5-1.34-3.5-2.36c-1.01-1.02-1.8-2.25-2.39-3.68
			c-0.58-1.43-0.88-3.02-0.88-4.77v-0.09c0-1.61,0.27-3.12,0.81-4.53c0.54-1.41,1.28-2.65,2.23-3.7c0.95-1.05,2.07-1.88,3.35-2.5
			c1.28-0.61,2.69-0.92,4.2-0.92c1.58,0,2.99,0.3,4.25,0.9c1.25,0.6,2.33,1.42,3.22,2.47c0.89,1.05,1.58,2.28,2.06,3.7
			c0.48,1.42,0.72,2.96,0.72,4.62c0,0.21,0,0.36,0,0.46c0,0.1-0.01,0.24-0.04,0.42h-18.52c0.09,1.4,0.39,2.64,0.92,3.72
			s1.18,2,1.97,2.76c0.79,0.76,1.69,1.34,2.69,1.73c1.01,0.39,2.06,0.59,3.18,0.59c1.75,0,3.23-0.34,4.44-1.01
			c1.21-0.67,2.28-1.5,3.22-2.5l1.49,1.31c-1.14,1.23-2.43,2.23-3.88,3.02C455.87,189.3,454.08,189.69,451.95,189.69z
			 M459.53,176.95c-0.09-1.14-0.31-2.23-0.68-3.26c-0.37-1.04-0.88-1.96-1.53-2.76c-0.66-0.8-1.47-1.45-2.43-1.93
			c-0.96-0.48-2.09-0.72-3.37-0.72c-1.11,0-2.14,0.22-3.11,0.66c-0.96,0.44-1.8,1.04-2.52,1.82c-0.71,0.78-1.31,1.69-1.77,2.76
			c-0.47,1.07-0.75,2.21-0.83,3.44H459.53z"/>
		<path class="st0" d="M481.03,189.69c-1.34,0-2.66-0.26-3.96-0.79s-2.46-1.28-3.48-2.28c-1.02-0.99-1.85-2.21-2.47-3.66
			c-0.63-1.45-0.94-3.07-0.94-4.88V178c0-1.81,0.31-3.44,0.94-4.88c0.63-1.44,1.45-2.67,2.47-3.68c1.02-1.01,2.18-1.78,3.48-2.32
			c1.3-0.54,2.62-0.81,3.96-0.81c1.11,0,2.13,0.15,3.06,0.44s1.77,0.69,2.52,1.18c0.74,0.5,1.42,1.07,2.02,1.71
			c0.6,0.64,1.13,1.31,1.6,2.01V157.2h2.15v31.97h-2.15v-4.99c-0.5,0.73-1.04,1.43-1.64,2.1c-0.6,0.67-1.27,1.25-2.02,1.75
			c-0.74,0.5-1.58,0.9-2.5,1.2C483.15,189.54,482.14,189.69,481.03,189.69z M481.25,187.63c1.17,0,2.3-0.23,3.39-0.7
			c1.09-0.47,2.06-1.12,2.91-1.97c0.85-0.85,1.53-1.85,2.04-3.02c0.51-1.17,0.77-2.47,0.77-3.9v-0.09c0-1.43-0.25-2.74-0.77-3.92
			c-0.51-1.18-1.19-2.19-2.04-3.02c-0.85-0.83-1.82-1.48-2.91-1.95c-1.1-0.47-2.23-0.7-3.39-0.7c-1.23,0-2.37,0.22-3.44,0.66
			c-1.07,0.44-1.99,1.07-2.78,1.88c-0.79,0.82-1.41,1.82-1.86,3c-0.45,1.18-0.68,2.52-0.68,4.01V178c0,1.46,0.23,2.79,0.7,3.99
			c0.47,1.2,1.1,2.21,1.9,3.04c0.8,0.83,1.74,1.48,2.8,1.93S480.08,187.63,481.25,187.63z"/>
		<path class="st0" d="M520.66,157.2h2.14v23.95l13.84-14.32h2.85l-9.77,9.9l10.07,12.44h-2.72l-8.85-10.9l-5.43,5.48v5.43h-2.14
			V157.2z"/>
		<path class="st0" d="M548.69,166.83h2.14v4.16c0.76-1.31,1.78-2.42,3.07-3.33c1.28-0.91,2.95-1.36,4.99-1.36
			c1.4,0,2.66,0.23,3.77,0.68c1.11,0.45,2.05,1.09,2.82,1.9c0.77,0.82,1.36,1.79,1.75,2.91c0.39,1.12,0.59,2.36,0.59,3.7v13.66
			h-2.15v-13.27c0-2.31-0.61-4.15-1.84-5.54c-1.23-1.39-2.98-2.08-5.25-2.08c-1.11,0-2.13,0.2-3.06,0.59
			c-0.94,0.39-1.75,0.94-2.45,1.64c-0.7,0.7-1.25,1.54-1.64,2.52c-0.39,0.98-0.59,2.05-0.59,3.22v12.92h-2.14V166.83z"/>
		<path class="st0" d="M588.93,189.69c-1.66,0-3.19-0.31-4.58-0.94c-1.39-0.63-2.59-1.47-3.61-2.52c-1.02-1.05-1.82-2.28-2.39-3.68
			c-0.57-1.4-0.86-2.89-0.86-4.47V178c0-1.58,0.29-3.06,0.86-4.47c0.57-1.4,1.37-2.64,2.41-3.72c1.04-1.08,2.26-1.93,3.66-2.56
			c1.4-0.63,2.93-0.94,4.6-0.94c1.66,0,3.19,0.31,4.58,0.94c1.39,0.63,2.59,1.47,3.61,2.52c1.02,1.05,1.82,2.28,2.39,3.68
			c0.57,1.4,0.85,2.89,0.85,4.47V178c0,1.58-0.28,3.07-0.85,4.47c-0.57,1.4-1.37,2.64-2.41,3.72c-1.04,1.08-2.26,1.94-3.66,2.56
			C592.13,189.38,590.59,189.69,588.93,189.69z M589.02,187.68c1.31,0,2.53-0.26,3.66-0.77c1.12-0.51,2.09-1.2,2.89-2.06
			c0.8-0.86,1.43-1.88,1.88-3.04c0.45-1.17,0.68-2.41,0.68-3.72V178c0-1.34-0.23-2.6-0.7-3.79c-0.47-1.18-1.12-2.21-1.95-3.09
			c-0.83-0.87-1.81-1.56-2.93-2.06c-1.12-0.5-2.33-0.74-3.61-0.74c-1.31,0-2.53,0.26-3.66,0.77c-1.12,0.51-2.09,1.2-2.89,2.06
			c-0.8,0.86-1.43,1.88-1.88,3.04c-0.45,1.17-0.68,2.41-0.68,3.72V178c0,1.34,0.23,2.61,0.7,3.79c0.47,1.18,1.12,2.21,1.95,3.09
			c0.83,0.88,1.81,1.56,2.93,2.06C586.53,187.43,587.73,187.68,589.02,187.68z"/>
		<path class="st0" d="M607.54,166.83h2.41l6.74,19.62l6.74-19.71h1.71l6.74,19.71l6.74-19.62h2.32l-8.19,22.51h-1.84l-6.66-19.14
			l-6.7,19.14h-1.84L607.54,166.83z"/>
		<path class="st0" d="M650.98,157.2h2.15v31.97h-2.15V157.2z"/>
		<path class="st0" d="M674.5,189.69c-1.46,0-2.85-0.28-4.18-0.83c-1.33-0.55-2.5-1.34-3.5-2.36c-1.01-1.02-1.8-2.25-2.39-3.68
			c-0.58-1.43-0.88-3.02-0.88-4.77v-0.09c0-1.61,0.27-3.12,0.81-4.53c0.54-1.41,1.28-2.65,2.23-3.7c0.95-1.05,2.07-1.88,3.35-2.5
			c1.28-0.61,2.69-0.92,4.2-0.92c1.58,0,2.99,0.3,4.25,0.9c1.25,0.6,2.33,1.42,3.22,2.47c0.89,1.05,1.58,2.28,2.06,3.7
			c0.48,1.42,0.72,2.96,0.72,4.62c0,0.21,0,0.36,0,0.46c0,0.1-0.01,0.24-0.04,0.42h-18.52c0.09,1.4,0.39,2.64,0.92,3.72
			c0.53,1.08,1.18,2,1.97,2.76c0.79,0.76,1.69,1.34,2.69,1.73c1.01,0.39,2.06,0.59,3.18,0.59c1.75,0,3.23-0.34,4.44-1.01
			c1.21-0.67,2.28-1.5,3.22-2.5l1.49,1.31c-1.14,1.23-2.43,2.23-3.88,3.02C678.42,189.3,676.63,189.69,674.5,189.69z M682.07,176.95
			c-0.09-1.14-0.31-2.23-0.68-3.26c-0.37-1.04-0.88-1.96-1.53-2.76c-0.66-0.8-1.47-1.45-2.43-1.93c-0.96-0.48-2.09-0.72-3.37-0.72
			c-1.11,0-2.14,0.22-3.11,0.66c-0.96,0.44-1.8,1.04-2.52,1.82c-0.71,0.78-1.31,1.69-1.77,2.76c-0.47,1.07-0.75,2.21-0.83,3.44
			H682.07z"/>
		<path class="st0" d="M703.57,189.69c-1.34,0-2.66-0.26-3.96-0.79s-2.46-1.28-3.48-2.28c-1.02-0.99-1.85-2.21-2.47-3.66
			c-0.63-1.45-0.94-3.07-0.94-4.88V178c0-1.81,0.31-3.44,0.94-4.88c0.63-1.44,1.45-2.67,2.47-3.68c1.02-1.01,2.18-1.78,3.48-2.32
			c1.3-0.54,2.62-0.81,3.96-0.81c1.11,0,2.13,0.15,3.06,0.44s1.77,0.69,2.52,1.18c0.74,0.5,1.42,1.07,2.02,1.71
			c0.6,0.64,1.13,1.31,1.6,2.01V157.2h2.15v31.97h-2.15v-4.99c-0.5,0.73-1.04,1.43-1.64,2.1c-0.6,0.67-1.27,1.25-2.02,1.75
			c-0.74,0.5-1.58,0.9-2.5,1.2C705.7,189.54,704.68,189.69,703.57,189.69z M703.79,187.63c1.17,0,2.3-0.23,3.39-0.7
			c1.09-0.47,2.06-1.12,2.91-1.97c0.85-0.85,1.53-1.85,2.04-3.02c0.51-1.17,0.77-2.47,0.77-3.9v-0.09c0-1.43-0.25-2.74-0.77-3.92
			c-0.51-1.18-1.19-2.19-2.04-3.02c-0.85-0.83-1.82-1.48-2.91-1.95c-1.1-0.47-2.23-0.7-3.39-0.7c-1.23,0-2.37,0.22-3.44,0.66
			c-1.07,0.44-1.99,1.07-2.78,1.88c-0.79,0.82-1.41,1.82-1.86,3c-0.45,1.18-0.68,2.52-0.68,4.01V178c0,1.46,0.23,2.79,0.7,3.99
			c0.47,1.2,1.1,2.21,1.9,3.04c0.8,0.83,1.74,1.48,2.8,1.93C701.51,187.4,702.62,187.63,703.79,187.63z"/>
		<path class="st0" d="M736.37,196.26c-3.76,0-7.18-1.14-10.25-3.42l1.27-1.75c2.72,2.1,5.72,3.15,9.02,3.15
			c1.28,0,2.46-0.18,3.52-0.55c1.07-0.37,1.99-0.91,2.76-1.64c0.77-0.73,1.38-1.64,1.82-2.72c0.44-1.08,0.66-2.34,0.66-3.76v-3.24
			c-0.5,0.7-1.05,1.36-1.66,1.97c-0.61,0.61-1.3,1.16-2.06,1.64c-0.76,0.48-1.61,0.86-2.54,1.14c-0.94,0.28-1.96,0.42-3.07,0.42
			c-1.34,0-2.66-0.25-3.94-0.74c-1.28-0.5-2.43-1.2-3.44-2.12c-1.01-0.92-1.82-2.02-2.43-3.31c-0.61-1.28-0.92-2.73-0.92-4.34v-0.09
			c0-1.61,0.31-3.07,0.92-4.38c0.61-1.31,1.42-2.43,2.43-3.35c1.01-0.92,2.15-1.63,3.44-2.12c1.28-0.5,2.6-0.74,3.94-0.74
			c1.11,0,2.14,0.14,3.09,0.42c0.95,0.28,1.8,0.64,2.56,1.09c0.76,0.45,1.44,0.99,2.06,1.6c0.61,0.61,1.15,1.24,1.62,1.88v-4.47
			h2.15v18.87c0,1.64-0.25,3.08-0.74,4.34c-0.5,1.25-1.2,2.34-2.1,3.24c-0.96,0.96-2.14,1.7-3.53,2.21
			C739.56,196,738.04,196.26,736.37,196.26z M736.07,185.44c1.17,0,2.3-0.2,3.42-0.61c1.11-0.41,2.09-0.98,2.96-1.73
			c0.86-0.75,1.55-1.64,2.08-2.67c0.53-1.04,0.79-2.2,0.79-3.48v-0.09c0-1.28-0.26-2.45-0.79-3.5c-0.53-1.05-1.22-1.95-2.08-2.69
			c-0.86-0.74-1.85-1.31-2.96-1.71c-1.11-0.39-2.25-0.59-3.42-0.59c-1.17,0-2.28,0.2-3.33,0.59c-1.05,0.39-1.97,0.96-2.76,1.69
			c-0.79,0.73-1.41,1.61-1.86,2.65c-0.45,1.04-0.68,2.21-0.68,3.52v0.09c0,1.25,0.23,2.41,0.7,3.46c0.47,1.05,1.09,1.95,1.88,2.69
			c0.79,0.74,1.71,1.33,2.76,1.75C733.83,185.23,734.93,185.44,736.07,185.44z"/>
		<path class="st0" d="M768.38,189.69c-1.46,0-2.85-0.28-4.18-0.83c-1.33-0.55-2.5-1.34-3.5-2.36c-1.01-1.02-1.8-2.25-2.39-3.68
			c-0.58-1.43-0.88-3.02-0.88-4.77v-0.09c0-1.61,0.27-3.12,0.81-4.53c0.54-1.41,1.28-2.65,2.23-3.7c0.95-1.05,2.07-1.88,3.35-2.5
			c1.28-0.61,2.69-0.92,4.2-0.92c1.58,0,2.99,0.3,4.25,0.9c1.25,0.6,2.33,1.42,3.22,2.47c0.89,1.05,1.58,2.28,2.06,3.7
			c0.48,1.42,0.72,2.96,0.72,4.62c0,0.21,0,0.36,0,0.46c0,0.1-0.01,0.24-0.04,0.42h-18.52c0.09,1.4,0.39,2.64,0.92,3.72
			c0.53,1.08,1.18,2,1.97,2.76c0.79,0.76,1.69,1.34,2.69,1.73c1.01,0.39,2.06,0.59,3.18,0.59c1.75,0,3.23-0.34,4.44-1.01
			c1.21-0.67,2.28-1.5,3.22-2.5l1.49,1.31c-1.14,1.23-2.43,2.23-3.88,3.02C772.3,189.3,770.51,189.69,768.38,189.69z M775.96,176.95
			c-0.09-1.14-0.31-2.23-0.68-3.26c-0.37-1.04-0.88-1.96-1.53-2.76c-0.66-0.8-1.47-1.45-2.43-1.93c-0.96-0.48-2.09-0.72-3.37-0.72
			c-1.11,0-2.14,0.22-3.11,0.66c-0.96,0.44-1.8,1.04-2.52,1.82c-0.71,0.78-1.31,1.69-1.77,2.76c-0.47,1.07-0.75,2.21-0.83,3.44
			H775.96z"/>
	</g>
	<g>
		<path class="st1" d="M335.92,143.18c-5.17,0-9.5-0.97-13-2.93c-3.5-1.95-6.38-4.29-8.65-6.99l9.17-10.21
			c1.89,2.08,3.79,3.7,5.72,4.87c1.92,1.17,4.05,1.75,6.38,1.75c2.77,0,4.94-0.87,6.52-2.6c1.57-1.73,2.36-4.52,2.36-8.36V76.08
			h14.93v43.28c0,3.97-0.54,7.4-1.6,10.3c-1.07,2.9-2.62,5.36-4.63,7.37c-2.02,2.02-4.49,3.54-7.42,4.58
			C342.77,142.66,339.51,143.18,335.92,143.18z"/>
		<path class="st1" d="M396.87,76.08h15.69l17.39,27.98l17.39-27.98h15.69v66.15h-14.46V99.05l-18.62,28.26h-0.38l-18.43-27.97
			v42.91h-14.27V76.08z"/>
		<path class="st1" d="M498.75,75.61h13.42l28.35,66.63H525.3l-6.05-14.84h-27.98l-6.05,14.84H470.4L498.75,75.61z M514.06,114.55
			l-8.79-21.45l-8.79,21.45H514.06z"/>
		<path class="st1" d="M570.48,143.18c-5.04,0-9.99-0.86-14.84-2.6c-4.85-1.73-9.26-4.4-13.23-7.99l8.6-10.3
			c3.02,2.46,6.13,4.41,9.31,5.86c3.18,1.45,6.66,2.18,10.44,2.18c3.02,0,5.37-0.55,7.04-1.65c1.67-1.1,2.5-2.63,2.5-4.58v-0.19
			c0-0.94-0.17-1.78-0.52-2.5c-0.35-0.72-1.01-1.4-1.99-2.03c-0.98-0.63-2.33-1.26-4.06-1.89c-1.73-0.63-3.99-1.29-6.76-1.98
			c-3.34-0.82-6.37-1.73-9.07-2.74c-2.71-1.01-5.01-2.25-6.9-3.73c-1.89-1.48-3.36-3.32-4.4-5.53c-1.04-2.21-1.56-4.95-1.56-8.22
			v-0.19c0-3.02,0.57-5.75,1.7-8.18c1.13-2.43,2.72-4.52,4.77-6.28s4.49-3.12,7.33-4.07c2.83-0.94,5.95-1.42,9.36-1.42
			c4.85,0,9.31,0.72,13.37,2.17s7.8,3.53,11.2,6.24l-7.56,10.96c-2.96-2.01-5.86-3.6-8.69-4.77c-2.83-1.17-5.67-1.75-8.5-1.75
			c-2.83,0-4.96,0.55-6.38,1.65c-1.42,1.1-2.13,2.47-2.13,4.11v0.19c0,1.07,0.2,2,0.61,2.79c0.41,0.79,1.15,1.5,2.22,2.13
			c1.07,0.63,2.54,1.23,4.4,1.79c1.86,0.57,4.21,1.23,7.04,1.99c3.34,0.88,6.32,1.87,8.93,2.98c2.61,1.1,4.82,2.43,6.61,3.97
			c1.79,1.54,3.15,3.36,4.06,5.43c0.91,2.08,1.37,4.57,1.37,7.47v0.19c0,3.28-0.6,6.19-1.8,8.74s-2.87,4.69-5.01,6.43
			c-2.14,1.73-4.69,3.06-7.65,3.97C577.34,142.73,574.07,143.18,570.48,143.18z"/>
		<path class="st1" d="M618.58,89.5h-20.13V76.08h54.81V89.5h-20.13v52.73h-14.55V89.5z"/>
		<path class="st1" d="M661.58,76.08h49.9v12.95h-35.44v13.42h31.19v12.95h-31.19v13.89h35.91v12.95h-50.37V76.08z"/>
		<path class="st1" d="M722.06,76.08h30.24c8.38,0,14.81,2.24,19.28,6.71c3.78,3.78,5.67,8.82,5.67,15.12v0.19
			c0,5.36-1.31,9.72-3.92,13.09c-2.61,3.37-6.03,5.85-10.26,7.42l16.16,23.63h-17.01l-14.18-21.17h-11.44v21.17h-14.55V76.08z
			 M751.36,108.22c3.59,0,6.35-0.85,8.27-2.55c1.92-1.7,2.88-3.97,2.88-6.8v-0.19c0-3.15-1.01-5.51-3.03-7.09
			c-2.02-1.57-4.82-2.36-8.41-2.36h-14.46v19H751.36z"/>
	</g>
	<g>
		<g>
			<polygon class="st2" points="228.91,100.8 228.91,115.89 282.95,61.94 282.95,47.2 			"/>
			<polygon class="st2" points="247.93,127.47 249.51,125.89 249.91,125.49 249.91,125.49 282.95,92.41 282.95,77.02 228.91,130.98 
				228.91,146.52 247.93,127.47 			"/>
			<g>
				<polygon class="st2" points="282.95,123.77 282.95,107.89 249.91,140.88 249.91,156.75 				"/>
				<polygon class="st2" points="249.91,171.84 249.91,186.95 282.95,153.82 282.95,138.85 				"/>
				<polygon class="st2" points="249.91,202.67 249.91,217.78 282.95,184.65 282.95,169.68 				"/>
			</g>
		</g>
		<path class="st1" d="M206.04,169.42l22.87-22.9l-99.6-99.32l-0.01,117.42l0,0c0,8.35-1.71,14.4-5.13,18.17
			c-3.42,3.77-8.14,5.64-14.16,5.64c-5.07,0-9.68-1.26-13.86-3.8c-4.18-2.53-8.32-6.06-12.42-10.57l-19.91,22.17
			c4.93,5.89,11.19,10.95,18.78,15.19c7.59,4.24,17,6.36,28.22,6.36c7.8,0,14.88-1.13,21.25-3.39c6.36-2.26,11.73-5.57,16.12-9.96
			c4.38-4.38,7.73-9.72,10.06-16.01c2.32-6.29,3.49-11.16,3.49-19.79v-5.02v0.01l-0.18-38.7L206.04,169.42z"/>
	</g>
</g>
</svg>
